<svg width="32" height="31" viewBox="0 0 32 31" fill="none" xmlns="http://www.w3.org/2000/svg">
<path d="M29.6406 0.289062H2.21875C1.37741 0.289062 0.695312 0.971156 0.695312 1.8125V29.2344C0.695312 30.0757 1.37741 30.7578 2.21875 30.7578H17.4531C17.8572 30.7578 18.2446 30.5972 18.5303 30.3115C18.8161 30.0259 18.9766 29.6384 18.9766 29.2344V26.1875C18.9766 24.2013 20.2501 22.507 22.0234 21.8782V29.2344C22.0234 30.0757 22.7055 30.7578 23.5469 30.7578H29.6406C30.482 30.7578 31.1641 30.0757 31.1641 29.2344V1.8125C31.1641 0.971156 30.482 0.289062 29.6406 0.289062ZM28.1172 27.7109H25.0703V20.0938C25.0703 19.2524 24.3882 18.5703 23.5469 18.5703C19.3468 18.5703 15.9297 21.9874 15.9297 26.1875V27.7109H3.74219V18.5703H9.83594V23.1406C9.83594 23.982 10.518 24.6641 11.3594 24.6641C12.2007 24.6641 12.8828 23.982 12.8828 23.1406V17.0469C12.8828 16.2055 12.2007 15.5234 11.3594 15.5234H3.74219V3.33594H12.8828V9.42969H8.3125C7.47116 9.42969 6.78906 10.1118 6.78906 10.9531C6.78906 11.7945 7.47116 12.4766 8.3125 12.4766H14.4062H20.5C21.3413 12.4766 22.0234 11.7945 22.0234 10.9531C22.0234 10.1118 21.3413 9.42969 20.5 9.42969H15.9297V3.33594H28.1172V27.7109Z" fill="#FF5A30"/>
</svg>
