<svg width="60" height="21" viewBox="0 0 60 21" fill="none" xmlns="http://www.w3.org/2000/svg">
<path d="M0.667318 9.82816L6.7625 3.16602V7.14077H8.05839C12.0766 7.14077 15.334 10.3876 15.334 14.393V16.4993L14.7584 15.8706C12.8014 13.7333 10.0324 12.5156 7.1293 12.5156H6.7625V16.4903L0.667318 9.82816Z" fill="#787A80"/>
<path d="M29.95 11.94C30.0993 12.1267 30.286 12.374 30.51 12.682C30.7433 12.9807 30.9813 13.3167 31.224 13.69C31.4667 14.054 31.7047 14.4367 31.938 14.838C32.1807 15.2393 32.386 15.6267 32.554 16H31.07C30.8833 15.6453 30.678 15.286 30.454 14.922C30.2393 14.558 30.02 14.2127 29.796 13.886C29.572 13.55 29.348 13.2373 29.124 12.948C28.9093 12.6587 28.7133 12.4067 28.536 12.192C28.4147 12.2013 28.2887 12.206 28.158 12.206C28.0367 12.206 27.9107 12.206 27.78 12.206H26.562V16H25.204V6.438C25.5867 6.34467 26.0113 6.284 26.478 6.256C26.954 6.21867 27.388 6.2 27.78 6.2C29.1427 6.2 30.1787 6.45667 30.888 6.97C31.6067 7.48333 31.966 8.24867 31.966 9.266C31.966 9.91 31.7933 10.4607 31.448 10.918C31.112 11.3753 30.6127 11.716 29.95 11.94ZM27.892 7.39C27.3133 7.39 26.87 7.404 26.562 7.432V11.086H27.528C27.9947 11.086 28.4147 11.0627 28.788 11.016C29.1613 10.9693 29.474 10.8807 29.726 10.75C29.9873 10.6193 30.188 10.4373 30.328 10.204C30.468 9.96133 30.538 9.644 30.538 9.252C30.538 8.888 30.468 8.58467 30.328 8.342C30.188 8.09933 29.9967 7.908 29.754 7.768C29.5207 7.628 29.2407 7.53 28.914 7.474C28.5967 7.418 28.256 7.39 27.892 7.39ZM33.5187 12.374C33.5187 11.73 33.612 11.17 33.7987 10.694C33.9854 10.2087 34.2327 9.80733 34.5407 9.49C34.8487 9.17267 35.2034 8.93467 35.6047 8.776C36.006 8.61733 36.4167 8.538 36.8367 8.538C37.8167 8.538 38.568 8.846 39.0907 9.462C39.6134 10.0687 39.8747 10.9973 39.8747 12.248C39.8747 12.304 39.8747 12.3787 39.8747 12.472C39.8747 12.556 39.87 12.6353 39.8607 12.71H34.8767C34.9327 13.466 35.152 14.04 35.5347 14.432C35.9174 14.824 36.5147 15.02 37.3267 15.02C37.784 15.02 38.1667 14.9827 38.4747 14.908C38.792 14.824 39.03 14.7447 39.1887 14.67L39.3707 15.762C39.212 15.846 38.932 15.9347 38.5307 16.028C38.1387 16.1213 37.6907 16.168 37.1867 16.168C36.552 16.168 36.0014 16.0747 35.5347 15.888C35.0774 15.692 34.6994 15.426 34.4007 15.09C34.102 14.754 33.878 14.3573 33.7287 13.9C33.5887 13.4333 33.5187 12.9247 33.5187 12.374ZM38.5167 11.66C38.526 11.072 38.3767 10.5913 38.0687 10.218C37.77 9.83533 37.3547 9.644 36.8227 9.644C36.524 9.644 36.258 9.70467 36.0247 9.826C35.8007 9.938 35.6094 10.0873 35.4507 10.274C35.292 10.4607 35.166 10.6753 35.0727 10.918C34.9887 11.1607 34.9327 11.408 34.9047 11.66H38.5167ZM46.799 12.374C46.799 11.5247 46.589 10.8713 46.169 10.414C45.749 9.95667 45.189 9.728 44.489 9.728C44.097 9.728 43.789 9.742 43.565 9.77C43.3503 9.798 43.1777 9.83067 43.047 9.868V14.46C43.2057 14.5907 43.4343 14.7167 43.733 14.838C44.0317 14.9593 44.3583 15.02 44.713 15.02C45.0863 15.02 45.4037 14.9547 45.665 14.824C45.9357 14.684 46.155 14.4973 46.323 14.264C46.491 14.0213 46.6123 13.7413 46.687 13.424C46.7617 13.0973 46.799 12.7473 46.799 12.374ZM48.157 12.374C48.157 12.9247 48.0823 13.4333 47.933 13.9C47.793 14.3667 47.583 14.768 47.303 15.104C47.023 15.44 46.6777 15.7013 46.267 15.888C45.8657 16.0747 45.4037 16.168 44.881 16.168C44.461 16.168 44.0877 16.112 43.761 16C43.4437 15.888 43.2057 15.7807 43.047 15.678V18.59H41.745V8.944C42.053 8.86933 42.4357 8.79 42.893 8.706C43.3597 8.61267 43.8963 8.566 44.503 8.566C45.063 8.566 45.567 8.65467 46.015 8.832C46.463 9.00933 46.8457 9.26133 47.163 9.588C47.4803 9.91467 47.723 10.316 47.891 10.792C48.0683 11.2587 48.157 11.786 48.157 12.374ZM52.1731 16.14C51.3705 16.1213 50.8011 15.9487 50.4651 15.622C50.1291 15.2953 49.9611 14.7867 49.9611 14.096V5.36L51.2631 5.136V13.886C51.2631 14.1007 51.2818 14.278 51.3191 14.418C51.3565 14.558 51.4171 14.67 51.5011 14.754C51.5851 14.838 51.6971 14.9033 51.8371 14.95C51.9771 14.9873 52.1498 15.02 52.3551 15.048L52.1731 16.14ZM52.9633 17.358C53.0659 17.4047 53.1966 17.4467 53.3553 17.484C53.5233 17.5307 53.6866 17.554 53.8453 17.554C54.3586 17.554 54.7599 17.4373 55.0493 17.204C55.3386 16.98 55.5999 16.6113 55.8333 16.098C55.2453 14.978 54.6946 13.7927 54.1813 12.542C53.6773 11.282 53.2573 10.008 52.9213 8.72H54.3213C54.4239 9.14 54.5453 9.59267 54.6853 10.078C54.8346 10.5633 54.9979 11.0627 55.1753 11.576C55.3526 12.0893 55.5439 12.6027 55.7493 13.116C55.9546 13.6293 56.1693 14.124 56.3933 14.6C56.7479 13.62 57.0559 12.6493 57.3173 11.688C57.5786 10.7267 57.8259 9.73733 58.0593 8.72H59.4033C59.0673 10.092 58.6939 11.4127 58.2833 12.682C57.8726 13.942 57.4293 15.1227 56.9533 16.224C56.7666 16.644 56.5706 17.0033 56.3653 17.302C56.1693 17.61 55.9499 17.862 55.7073 18.058C55.4646 18.254 55.1893 18.3987 54.8813 18.492C54.5826 18.5853 54.2419 18.632 53.8593 18.632C53.7566 18.632 53.6493 18.6227 53.5373 18.604C53.4253 18.5947 53.3133 18.576 53.2013 18.548C53.0986 18.5293 53.0006 18.506 52.9073 18.478C52.8233 18.45 52.7626 18.4267 52.7253 18.408L52.9633 17.358Z" fill="#787A80"/>
</svg>
