<svg width="16" height="30" viewBox="0 0 16 30" fill="none" xmlns="http://www.w3.org/2000/svg">
<path d="M15.4178 0.340088L11.7148 0.333984C7.55454 0.333984 4.86603 3.16744 4.86603 7.55296V10.8814H1.14281C0.82108 10.8814 0.560547 11.1493 0.560547 11.4798V16.3023C0.560547 16.6328 0.821377 16.9005 1.14281 16.9005H4.86603V29.0692C4.86603 29.3997 5.12656 29.6673 5.44829 29.6673H10.306C10.6278 29.6673 10.8883 29.3994 10.8883 29.0692V16.9005H15.2416C15.5633 16.9005 15.8239 16.6328 15.8239 16.3023L15.8257 11.4798C15.8257 11.3211 15.7642 11.1692 15.6551 11.0569C15.5461 10.9446 15.3976 10.8814 15.2431 10.8814H10.8883V8.05983C10.8883 6.70368 11.2029 6.01523 12.9227 6.01523L15.4172 6.01432C15.7386 6.01432 15.9991 5.74638 15.9991 5.41619V0.93821C15.9991 0.608327 15.7389 0.340698 15.4178 0.340088Z" fill="#787A80"/>
</svg>
